<svg width="250" height="250" xmlns="http://www.w3.org/2000/svg" xlink="http://www.w3.org/1999/xlink"><rect width="100%" fill="#ffffff" height="100%"/><g fill="#000000"><rect width="10" y="240" x="0" height="10"/><rect width="10" y="230" x="0" height="10"/><rect width="10" y="220" x="0" height="10"/><rect width="10" y="210" x="0" height="10"/><rect width="10" y="200" x="0" height="10"/><rect width="10" y="190" x="0" height="10"/><rect width="10" y="180" x="0" height="10"/><rect width="10" y="140" x="0" height="10"/><rect width="10" y="120" x="0" height="10"/><rect width="10" y="110" x="0" height="10"/><rect width="10" y="100" x="0" height="10"/><rect width="10" y="60" x="0" height="10"/><rect width="10" y="50" x="0" height="10"/><rect width="10" y="40" x="0" height="10"/><rect width="10" y="30" x="0" height="10"/><rect width="10" y="20" x="0" height="10"/><rect width="10" y="10" x="0" height="10"/><rect width="10" y="0" x="0" height="10"/><rect width="10" y="240" x="10" height="10"/><rect width="10" y="180" x="10" height="10"/><rect width="10" y="160" x="10" height="10"/><rect width="10" y="80" x="10" height="10"/><rect width="10" y="60" x="10" height="10"/><rect width="10" y="0" x="10" height="10"/><rect width="10" y="240" x="20" height="10"/><rect width="10" y="220" x="20" height="10"/><rect width="10" y="210" x="20" height="10"/><rect width="10" y="200" x="20" height="10"/><rect width="10" y="180" x="20" height="10"/><rect width="10" y="150" x="20" height="10"/><rect width="10" y="120" x="20" height="10"/><rect width="10" y="110" x="20" height="10"/><rect width="10" y="90" x="20" height="10"/><rect width="10" y="60" x="20" height="10"/><rect width="10" y="40" x="20" height="10"/><rect width="10" y="30" x="20" height="10"/><rect width="10" y="20" x="20" height="10"/><rect width="10" y="0" x="20" height="10"/><rect width="10" y="240" x="30" height="10"/><rect width="10" y="220" x="30" height="10"/><rect width="10" y="210" x="30" height="10"/><rect width="10" y="200" x="30" height="10"/><rect width="10" y="180" x="30" height="10"/><rect width="10" y="150" x="30" height="10"/><rect width="10" y="130" x="30" height="10"/><rect width="10" y="100" x="30" height="10"/><rect width="10" y="60" x="30" height="10"/><rect width="10" y="40" x="30" height="10"/><rect width="10" y="30" x="30" height="10"/><rect width="10" y="20" x="30" height="10"/><rect width="10" y="0" x="30" height="10"/><rect width="10" y="240" x="40" height="10"/><rect width="10" y="220" x="40" height="10"/><rect width="10" y="210" x="40" height="10"/><rect width="10" y="200" x="40" height="10"/><rect width="10" y="180" x="40" height="10"/><rect width="10" y="110" x="40" height="10"/><rect width="10" y="60" x="40" height="10"/><rect width="10" y="40" x="40" height="10"/><rect width="10" y="30" x="40" height="10"/><rect width="10" y="20" x="40" height="10"/><rect width="10" y="0" x="40" height="10"/><rect width="10" y="240" x="50" height="10"/><rect width="10" y="180" x="50" height="10"/><rect width="10" y="160" x="50" height="10"/><rect width="10" y="130" x="50" height="10"/><rect width="10" y="120" x="50" height="10"/><rect width="10" y="80" x="50" height="10"/><rect width="10" y="60" x="50" height="10"/><rect width="10" y="0" x="50" height="10"/><rect width="10" y="240" x="60" height="10"/><rect width="10" y="230" x="60" height="10"/><rect width="10" y="220" x="60" height="10"/><rect width="10" y="210" x="60" height="10"/><rect width="10" y="200" x="60" height="10"/><rect width="10" y="190" x="60" height="10"/><rect width="10" y="180" x="60" height="10"/><rect width="10" y="160" x="60" height="10"/><rect width="10" y="140" x="60" height="10"/><rect width="10" y="120" x="60" height="10"/><rect width="10" y="100" x="60" height="10"/><rect width="10" y="60" x="60" height="10"/><rect width="10" y="50" x="60" height="10"/><rect width="10" y="40" x="60" height="10"/><rect width="10" y="30" x="60" height="10"/><rect width="10" y="20" x="60" height="10"/><rect width="10" y="10" x="60" height="10"/><rect width="10" y="0" x="60" height="10"/><rect width="10" y="160" x="70" height="10"/><rect width="10" y="140" x="70" height="10"/><rect width="10" y="120" x="70" height="10"/><rect width="10" y="100" x="70" height="10"/><rect width="10" y="90" x="70" height="10"/><rect width="10" y="80" x="70" height="10"/><rect width="10" y="230" x="80" height="10"/><rect width="10" y="190" x="80" height="10"/><rect width="10" y="180" x="80" height="10"/><rect width="10" y="150" x="80" height="10"/><rect width="10" y="140" x="80" height="10"/><rect width="10" y="120" x="80" height="10"/><rect width="10" y="90" x="80" height="10"/><rect width="10" y="70" x="80" height="10"/><rect width="10" y="50" x="80" height="10"/><rect width="10" y="40" x="80" height="10"/><rect width="10" y="220" x="90" height="10"/><rect width="10" y="210" x="90" height="10"/><rect width="10" y="200" x="90" height="10"/><rect width="10" y="150" x="90" height="10"/><rect width="10" y="130" x="90" height="10"/><rect width="10" y="120" x="90" height="10"/><rect width="10" y="100" x="90" height="10"/><rect width="10" y="90" x="90" height="10"/><rect width="10" y="80" x="90" height="10"/><rect width="10" y="50" x="90" height="10"/><rect width="10" y="10" x="90" height="10"/><rect width="10" y="0" x="90" height="10"/><rect width="10" y="220" x="100" height="10"/><rect width="10" y="210" x="100" height="10"/><rect width="10" y="200" x="100" height="10"/><rect width="10" y="180" x="100" height="10"/><rect width="10" y="160" x="100" height="10"/><rect width="10" y="150" x="100" height="10"/><rect width="10" y="130" x="100" height="10"/><rect width="10" y="110" x="100" height="10"/><rect width="10" y="100" x="100" height="10"/><rect width="10" y="70" x="100" height="10"/><rect width="10" y="60" x="100" height="10"/><rect width="10" y="50" x="100" height="10"/><rect width="10" y="30" x="100" height="10"/><rect width="10" y="20" x="100" height="10"/><rect width="10" y="10" x="100" height="10"/><rect width="10" y="220" x="110" height="10"/><rect width="10" y="170" x="110" height="10"/><rect width="10" y="160" x="110" height="10"/><rect width="10" y="130" x="110" height="10"/><rect width="10" y="120" x="110" height="10"/><rect width="10" y="110" x="110" height="10"/><rect width="10" y="90" x="110" height="10"/><rect width="10" y="80" x="110" height="10"/><rect width="10" y="40" x="110" height="10"/><rect width="10" y="30" x="110" height="10"/><rect width="10" y="0" x="110" height="10"/><rect width="10" y="240" x="120" height="10"/><rect width="10" y="230" x="120" height="10"/><rect width="10" y="220" x="120" height="10"/><rect width="10" y="180" x="120" height="10"/><rect width="10" y="170" x="120" height="10"/><rect width="10" y="120" x="120" height="10"/><rect width="10" y="110" x="120" height="10"/><rect width="10" y="90" x="120" height="10"/><rect width="10" y="70" x="120" height="10"/><rect width="10" y="60" x="120" height="10"/><rect width="10" y="50" x="120" height="10"/><rect width="10" y="20" x="120" height="10"/><rect width="10" y="220" x="130" height="10"/><rect width="10" y="210" x="130" height="10"/><rect width="10" y="200" x="130" height="10"/><rect width="10" y="160" x="130" height="10"/><rect width="10" y="140" x="130" height="10"/><rect width="10" y="130" x="130" height="10"/><rect width="10" y="100" x="130" height="10"/><rect width="10" y="80" x="130" height="10"/><rect width="10" y="70" x="130" height="10"/><rect width="10" y="30" x="130" height="10"/><rect width="10" y="20" x="130" height="10"/><rect width="10" y="0" x="130" height="10"/><rect width="10" y="220" x="140" height="10"/><rect width="10" y="210" x="140" height="10"/><rect width="10" y="200" x="140" height="10"/><rect width="10" y="190" x="140" height="10"/><rect width="10" y="160" x="140" height="10"/><rect width="10" y="120" x="140" height="10"/><rect width="10" y="110" x="140" height="10"/><rect width="10" y="90" x="140" height="10"/><rect width="10" y="60" x="140" height="10"/><rect width="10" y="50" x="140" height="10"/><rect width="10" y="40" x="140" height="10"/><rect width="10" y="230" x="150" height="10"/><rect width="10" y="220" x="150" height="10"/><rect width="10" y="200" x="150" height="10"/><rect width="10" y="190" x="150" height="10"/><rect width="10" y="170" x="150" height="10"/><rect width="10" y="130" x="150" height="10"/><rect width="10" y="110" x="150" height="10"/><rect width="10" y="90" x="150" height="10"/><rect width="10" y="80" x="150" height="10"/><rect width="10" y="70" x="150" height="10"/><rect width="10" y="40" x="150" height="10"/><rect width="10" y="30" x="150" height="10"/><rect width="10" y="220" x="160" height="10"/><rect width="10" y="200" x="160" height="10"/><rect width="10" y="190" x="160" height="10"/><rect width="10" y="180" x="160" height="10"/><rect width="10" y="170" x="160" height="10"/><rect width="10" y="160" x="160" height="10"/><rect width="10" y="150" x="160" height="10"/><rect width="10" y="140" x="160" height="10"/><rect width="10" y="110" x="160" height="10"/><rect width="10" y="80" x="160" height="10"/><rect width="10" y="60" x="160" height="10"/><rect width="10" y="20" x="160" height="10"/><rect width="10" y="10" x="160" height="10"/><rect width="10" y="0" x="160" height="10"/><rect width="10" y="240" x="170" height="10"/><rect width="10" y="220" x="170" height="10"/><rect width="10" y="210" x="170" height="10"/><rect width="10" y="200" x="170" height="10"/><rect width="10" y="160" x="170" height="10"/><rect width="10" y="150" x="170" height="10"/><rect width="10" y="140" x="170" height="10"/><rect width="10" y="100" x="170" height="10"/><rect width="10" y="90" x="170" height="10"/><rect width="10" y="80" x="170" height="10"/><rect width="10" y="200" x="180" height="10"/><rect width="10" y="180" x="180" height="10"/><rect width="10" y="160" x="180" height="10"/><rect width="10" y="150" x="180" height="10"/><rect width="10" y="140" x="180" height="10"/><rect width="10" y="130" x="180" height="10"/><rect width="10" y="120" x="180" height="10"/><rect width="10" y="110" x="180" height="10"/><rect width="10" y="100" x="180" height="10"/><rect width="10" y="90" x="180" height="10"/><rect width="10" y="80" x="180" height="10"/><rect width="10" y="60" x="180" height="10"/><rect width="10" y="50" x="180" height="10"/><rect width="10" y="40" x="180" height="10"/><rect width="10" y="30" x="180" height="10"/><rect width="10" y="20" x="180" height="10"/><rect width="10" y="10" x="180" height="10"/><rect width="10" y="0" x="180" height="10"/><rect width="10" y="240" x="190" height="10"/><rect width="10" y="220" x="190" height="10"/><rect width="10" y="210" x="190" height="10"/><rect width="10" y="200" x="190" height="10"/><rect width="10" y="160" x="190" height="10"/><rect width="10" y="150" x="190" height="10"/><rect width="10" y="140" x="190" height="10"/><rect width="10" y="120" x="190" height="10"/><rect width="10" y="110" x="190" height="10"/><rect width="10" y="100" x="190" height="10"/><rect width="10" y="80" x="190" height="10"/><rect width="10" y="60" x="190" height="10"/><rect width="10" y="0" x="190" height="10"/><rect width="10" y="220" x="200" height="10"/><rect width="10" y="200" x="200" height="10"/><rect width="10" y="190" x="200" height="10"/><rect width="10" y="180" x="200" height="10"/><rect width="10" y="170" x="200" height="10"/><rect width="10" y="160" x="200" height="10"/><rect width="10" y="110" x="200" height="10"/><rect width="10" y="90" x="200" height="10"/><rect width="10" y="80" x="200" height="10"/><rect width="10" y="60" x="200" height="10"/><rect width="10" y="40" x="200" height="10"/><rect width="10" y="30" x="200" height="10"/><rect width="10" y="20" x="200" height="10"/><rect width="10" y="0" x="200" height="10"/><rect width="10" y="240" x="210" height="10"/><rect width="10" y="190" x="210" height="10"/><rect width="10" y="180" x="210" height="10"/><rect width="10" y="150" x="210" height="10"/><rect width="10" y="140" x="210" height="10"/><rect width="10" y="130" x="210" height="10"/><rect width="10" y="110" x="210" height="10"/><rect width="10" y="100" x="210" height="10"/><rect width="10" y="60" x="210" height="10"/><rect width="10" y="40" x="210" height="10"/><rect width="10" y="30" x="210" height="10"/><rect width="10" y="20" x="210" height="10"/><rect width="10" y="0" x="210" height="10"/><rect width="10" y="230" x="220" height="10"/><rect width="10" y="220" x="220" height="10"/><rect width="10" y="210" x="220" height="10"/><rect width="10" y="190" x="220" height="10"/><rect width="10" y="170" x="220" height="10"/><rect width="10" y="160" x="220" height="10"/><rect width="10" y="150" x="220" height="10"/><rect width="10" y="140" x="220" height="10"/><rect width="10" y="130" x="220" height="10"/><rect width="10" y="100" x="220" height="10"/><rect width="10" y="90" x="220" height="10"/><rect width="10" y="60" x="220" height="10"/><rect width="10" y="40" x="220" height="10"/><rect width="10" y="30" x="220" height="10"/><rect width="10" y="20" x="220" height="10"/><rect width="10" y="0" x="220" height="10"/><rect width="10" y="230" x="230" height="10"/><rect width="10" y="220" x="230" height="10"/><rect width="10" y="200" x="230" height="10"/><rect width="10" y="190" x="230" height="10"/><rect width="10" y="180" x="230" height="10"/><rect width="10" y="160" x="230" height="10"/><rect width="10" y="150" x="230" height="10"/><rect width="10" y="60" x="230" height="10"/><rect width="10" y="0" x="230" height="10"/><rect width="10" y="240" x="240" height="10"/><rect width="10" y="230" x="240" height="10"/><rect width="10" y="210" x="240" height="10"/><rect width="10" y="200" x="240" height="10"/><rect width="10" y="160" x="240" height="10"/><rect width="10" y="150" x="240" height="10"/><rect width="10" y="140" x="240" height="10"/><rect width="10" y="120" x="240" height="10"/><rect width="10" y="100" x="240" height="10"/><rect width="10" y="60" x="240" height="10"/><rect width="10" y="50" x="240" height="10"/><rect width="10" y="40" x="240" height="10"/><rect width="10" y="30" x="240" height="10"/><rect width="10" y="20" x="240" height="10"/><rect width="10" y="10" x="240" height="10"/><rect width="10" y="0" x="240" height="10"/></g></svg>