<svg height="250" width="250" xlink="http://www.w3.org/1999/xlink" xmlns="http://www.w3.org/2000/svg"><rect fill="#ffffff" height="100%" width="100%"/><g fill="#000000"><rect height="10" width="10" x="0" y="240"/><rect height="10" width="10" x="0" y="230"/><rect height="10" width="10" x="0" y="220"/><rect height="10" width="10" x="0" y="210"/><rect height="10" width="10" x="0" y="200"/><rect height="10" width="10" x="0" y="190"/><rect height="10" width="10" x="0" y="180"/><rect height="10" width="10" x="0" y="140"/><rect height="10" width="10" x="0" y="120"/><rect height="10" width="10" x="0" y="110"/><rect height="10" width="10" x="0" y="100"/><rect height="10" width="10" x="0" y="60"/><rect height="10" width="10" x="0" y="50"/><rect height="10" width="10" x="0" y="40"/><rect height="10" width="10" x="0" y="30"/><rect height="10" width="10" x="0" y="20"/><rect height="10" width="10" x="0" y="10"/><rect height="10" width="10" x="0" y="0"/><rect height="10" width="10" x="10" y="240"/><rect height="10" width="10" x="10" y="180"/><rect height="10" width="10" x="10" y="160"/><rect height="10" width="10" x="10" y="80"/><rect height="10" width="10" x="10" y="60"/><rect height="10" width="10" x="10" y="0"/><rect height="10" width="10" x="20" y="240"/><rect height="10" width="10" x="20" y="220"/><rect height="10" width="10" x="20" y="210"/><rect height="10" width="10" x="20" y="200"/><rect height="10" width="10" x="20" y="180"/><rect height="10" width="10" x="20" y="150"/><rect height="10" width="10" x="20" y="120"/><rect height="10" width="10" x="20" y="110"/><rect height="10" width="10" x="20" y="90"/><rect height="10" width="10" x="20" y="60"/><rect height="10" width="10" x="20" y="40"/><rect height="10" width="10" x="20" y="30"/><rect height="10" width="10" x="20" y="20"/><rect height="10" width="10" x="20" y="0"/><rect height="10" width="10" x="30" y="240"/><rect height="10" width="10" x="30" y="220"/><rect height="10" width="10" x="30" y="210"/><rect height="10" width="10" x="30" y="200"/><rect height="10" width="10" x="30" y="180"/><rect height="10" width="10" x="30" y="150"/><rect height="10" width="10" x="30" y="130"/><rect height="10" width="10" x="30" y="100"/><rect height="10" width="10" x="30" y="60"/><rect height="10" width="10" x="30" y="40"/><rect height="10" width="10" x="30" y="30"/><rect height="10" width="10" x="30" y="20"/><rect height="10" width="10" x="30" y="0"/><rect height="10" width="10" x="40" y="240"/><rect height="10" width="10" x="40" y="220"/><rect height="10" width="10" x="40" y="210"/><rect height="10" width="10" x="40" y="200"/><rect height="10" width="10" x="40" y="180"/><rect height="10" width="10" x="40" y="110"/><rect height="10" width="10" x="40" y="60"/><rect height="10" width="10" x="40" y="40"/><rect height="10" width="10" x="40" y="30"/><rect height="10" width="10" x="40" y="20"/><rect height="10" width="10" x="40" y="0"/><rect height="10" width="10" x="50" y="240"/><rect height="10" width="10" x="50" y="180"/><rect height="10" width="10" x="50" y="160"/><rect height="10" width="10" x="50" y="130"/><rect height="10" width="10" x="50" y="120"/><rect height="10" width="10" x="50" y="80"/><rect height="10" width="10" x="50" y="60"/><rect height="10" width="10" x="50" y="0"/><rect height="10" width="10" x="60" y="240"/><rect height="10" width="10" x="60" y="230"/><rect height="10" width="10" x="60" y="220"/><rect height="10" width="10" x="60" y="210"/><rect height="10" width="10" x="60" y="200"/><rect height="10" width="10" x="60" y="190"/><rect height="10" width="10" x="60" y="180"/><rect height="10" width="10" x="60" y="160"/><rect height="10" width="10" x="60" y="140"/><rect height="10" width="10" x="60" y="120"/><rect height="10" width="10" x="60" y="100"/><rect height="10" width="10" x="60" y="60"/><rect height="10" width="10" x="60" y="50"/><rect height="10" width="10" x="60" y="40"/><rect height="10" width="10" x="60" y="30"/><rect height="10" width="10" x="60" y="20"/><rect height="10" width="10" x="60" y="10"/><rect height="10" width="10" x="60" y="0"/><rect height="10" width="10" x="70" y="160"/><rect height="10" width="10" x="70" y="140"/><rect height="10" width="10" x="70" y="120"/><rect height="10" width="10" x="70" y="100"/><rect height="10" width="10" x="70" y="90"/><rect height="10" width="10" x="70" y="80"/><rect height="10" width="10" x="80" y="230"/><rect height="10" width="10" x="80" y="190"/><rect height="10" width="10" x="80" y="180"/><rect height="10" width="10" x="80" y="150"/><rect height="10" width="10" x="80" y="140"/><rect height="10" width="10" x="80" y="120"/><rect height="10" width="10" x="80" y="90"/><rect height="10" width="10" x="80" y="70"/><rect height="10" width="10" x="80" y="50"/><rect height="10" width="10" x="80" y="40"/><rect height="10" width="10" x="90" y="220"/><rect height="10" width="10" x="90" y="210"/><rect height="10" width="10" x="90" y="200"/><rect height="10" width="10" x="90" y="150"/><rect height="10" width="10" x="90" y="130"/><rect height="10" width="10" x="90" y="120"/><rect height="10" width="10" x="90" y="100"/><rect height="10" width="10" x="90" y="90"/><rect height="10" width="10" x="90" y="80"/><rect height="10" width="10" x="90" y="50"/><rect height="10" width="10" x="90" y="10"/><rect height="10" width="10" x="90" y="0"/><rect height="10" width="10" x="100" y="220"/><rect height="10" width="10" x="100" y="210"/><rect height="10" width="10" x="100" y="200"/><rect height="10" width="10" x="100" y="180"/><rect height="10" width="10" x="100" y="160"/><rect height="10" width="10" x="100" y="150"/><rect height="10" width="10" x="100" y="130"/><rect height="10" width="10" x="100" y="110"/><rect height="10" width="10" x="100" y="100"/><rect height="10" width="10" x="100" y="70"/><rect height="10" width="10" x="100" y="60"/><rect height="10" width="10" x="100" y="50"/><rect height="10" width="10" x="100" y="30"/><rect height="10" width="10" x="100" y="20"/><rect height="10" width="10" x="100" y="10"/><rect height="10" width="10" x="110" y="220"/><rect height="10" width="10" x="110" y="170"/><rect height="10" width="10" x="110" y="160"/><rect height="10" width="10" x="110" y="130"/><rect height="10" width="10" x="110" y="120"/><rect height="10" width="10" x="110" y="110"/><rect height="10" width="10" x="110" y="90"/><rect height="10" width="10" x="110" y="80"/><rect height="10" width="10" x="110" y="40"/><rect height="10" width="10" x="110" y="30"/><rect height="10" width="10" x="110" y="0"/><rect height="10" width="10" x="120" y="240"/><rect height="10" width="10" x="120" y="230"/><rect height="10" width="10" x="120" y="220"/><rect height="10" width="10" x="120" y="180"/><rect height="10" width="10" x="120" y="170"/><rect height="10" width="10" x="120" y="120"/><rect height="10" width="10" x="120" y="110"/><rect height="10" width="10" x="120" y="90"/><rect height="10" width="10" x="120" y="70"/><rect height="10" width="10" x="120" y="60"/><rect height="10" width="10" x="120" y="50"/><rect height="10" width="10" x="120" y="20"/><rect height="10" width="10" x="130" y="220"/><rect height="10" width="10" x="130" y="210"/><rect height="10" width="10" x="130" y="200"/><rect height="10" width="10" x="130" y="160"/><rect height="10" width="10" x="130" y="140"/><rect height="10" width="10" x="130" y="130"/><rect height="10" width="10" x="130" y="100"/><rect height="10" width="10" x="130" y="80"/><rect height="10" width="10" x="130" y="70"/><rect height="10" width="10" x="130" y="30"/><rect height="10" width="10" x="130" y="20"/><rect height="10" width="10" x="130" y="0"/><rect height="10" width="10" x="140" y="220"/><rect height="10" width="10" x="140" y="210"/><rect height="10" width="10" x="140" y="200"/><rect height="10" width="10" x="140" y="190"/><rect height="10" width="10" x="140" y="160"/><rect height="10" width="10" x="140" y="120"/><rect height="10" width="10" x="140" y="110"/><rect height="10" width="10" x="140" y="90"/><rect height="10" width="10" x="140" y="60"/><rect height="10" width="10" x="140" y="50"/><rect height="10" width="10" x="140" y="40"/><rect height="10" width="10" x="150" y="230"/><rect height="10" width="10" x="150" y="220"/><rect height="10" width="10" x="150" y="200"/><rect height="10" width="10" x="150" y="190"/><rect height="10" width="10" x="150" y="170"/><rect height="10" width="10" x="150" y="130"/><rect height="10" width="10" x="150" y="110"/><rect height="10" width="10" x="150" y="90"/><rect height="10" width="10" x="150" y="80"/><rect height="10" width="10" x="150" y="70"/><rect height="10" width="10" x="150" y="40"/><rect height="10" width="10" x="150" y="30"/><rect height="10" width="10" x="160" y="220"/><rect height="10" width="10" x="160" y="200"/><rect height="10" width="10" x="160" y="190"/><rect height="10" width="10" x="160" y="180"/><rect height="10" width="10" x="160" y="170"/><rect height="10" width="10" x="160" y="160"/><rect height="10" width="10" x="160" y="150"/><rect height="10" width="10" x="160" y="140"/><rect height="10" width="10" x="160" y="110"/><rect height="10" width="10" x="160" y="80"/><rect height="10" width="10" x="160" y="60"/><rect height="10" width="10" x="160" y="20"/><rect height="10" width="10" x="160" y="10"/><rect height="10" width="10" x="160" y="0"/><rect height="10" width="10" x="170" y="240"/><rect height="10" width="10" x="170" y="220"/><rect height="10" width="10" x="170" y="210"/><rect height="10" width="10" x="170" y="200"/><rect height="10" width="10" x="170" y="160"/><rect height="10" width="10" x="170" y="150"/><rect height="10" width="10" x="170" y="140"/><rect height="10" width="10" x="170" y="100"/><rect height="10" width="10" x="170" y="90"/><rect height="10" width="10" x="170" y="80"/><rect height="10" width="10" x="180" y="200"/><rect height="10" width="10" x="180" y="180"/><rect height="10" width="10" x="180" y="160"/><rect height="10" width="10" x="180" y="150"/><rect height="10" width="10" x="180" y="140"/><rect height="10" width="10" x="180" y="130"/><rect height="10" width="10" x="180" y="120"/><rect height="10" width="10" x="180" y="110"/><rect height="10" width="10" x="180" y="100"/><rect height="10" width="10" x="180" y="90"/><rect height="10" width="10" x="180" y="80"/><rect height="10" width="10" x="180" y="60"/><rect height="10" width="10" x="180" y="50"/><rect height="10" width="10" x="180" y="40"/><rect height="10" width="10" x="180" y="30"/><rect height="10" width="10" x="180" y="20"/><rect height="10" width="10" x="180" y="10"/><rect height="10" width="10" x="180" y="0"/><rect height="10" width="10" x="190" y="240"/><rect height="10" width="10" x="190" y="220"/><rect height="10" width="10" x="190" y="210"/><rect height="10" width="10" x="190" y="200"/><rect height="10" width="10" x="190" y="160"/><rect height="10" width="10" x="190" y="150"/><rect height="10" width="10" x="190" y="140"/><rect height="10" width="10" x="190" y="120"/><rect height="10" width="10" x="190" y="110"/><rect height="10" width="10" x="190" y="100"/><rect height="10" width="10" x="190" y="80"/><rect height="10" width="10" x="190" y="60"/><rect height="10" width="10" x="190" y="0"/><rect height="10" width="10" x="200" y="220"/><rect height="10" width="10" x="200" y="200"/><rect height="10" width="10" x="200" y="190"/><rect height="10" width="10" x="200" y="180"/><rect height="10" width="10" x="200" y="170"/><rect height="10" width="10" x="200" y="160"/><rect height="10" width="10" x="200" y="110"/><rect height="10" width="10" x="200" y="90"/><rect height="10" width="10" x="200" y="80"/><rect height="10" width="10" x="200" y="60"/><rect height="10" width="10" x="200" y="40"/><rect height="10" width="10" x="200" y="30"/><rect height="10" width="10" x="200" y="20"/><rect height="10" width="10" x="200" y="0"/><rect height="10" width="10" x="210" y="240"/><rect height="10" width="10" x="210" y="190"/><rect height="10" width="10" x="210" y="180"/><rect height="10" width="10" x="210" y="150"/><rect height="10" width="10" x="210" y="140"/><rect height="10" width="10" x="210" y="130"/><rect height="10" width="10" x="210" y="110"/><rect height="10" width="10" x="210" y="100"/><rect height="10" width="10" x="210" y="60"/><rect height="10" width="10" x="210" y="40"/><rect height="10" width="10" x="210" y="30"/><rect height="10" width="10" x="210" y="20"/><rect height="10" width="10" x="210" y="0"/><rect height="10" width="10" x="220" y="230"/><rect height="10" width="10" x="220" y="220"/><rect height="10" width="10" x="220" y="210"/><rect height="10" width="10" x="220" y="190"/><rect height="10" width="10" x="220" y="170"/><rect height="10" width="10" x="220" y="160"/><rect height="10" width="10" x="220" y="150"/><rect height="10" width="10" x="220" y="140"/><rect height="10" width="10" x="220" y="130"/><rect height="10" width="10" x="220" y="100"/><rect height="10" width="10" x="220" y="90"/><rect height="10" width="10" x="220" y="60"/><rect height="10" width="10" x="220" y="40"/><rect height="10" width="10" x="220" y="30"/><rect height="10" width="10" x="220" y="20"/><rect height="10" width="10" x="220" y="0"/><rect height="10" width="10" x="230" y="230"/><rect height="10" width="10" x="230" y="220"/><rect height="10" width="10" x="230" y="200"/><rect height="10" width="10" x="230" y="190"/><rect height="10" width="10" x="230" y="180"/><rect height="10" width="10" x="230" y="160"/><rect height="10" width="10" x="230" y="150"/><rect height="10" width="10" x="230" y="60"/><rect height="10" width="10" x="230" y="0"/><rect height="10" width="10" x="240" y="240"/><rect height="10" width="10" x="240" y="230"/><rect height="10" width="10" x="240" y="210"/><rect height="10" width="10" x="240" y="200"/><rect height="10" width="10" x="240" y="160"/><rect height="10" width="10" x="240" y="150"/><rect height="10" width="10" x="240" y="140"/><rect height="10" width="10" x="240" y="120"/><rect height="10" width="10" x="240" y="100"/><rect height="10" width="10" x="240" y="60"/><rect height="10" width="10" x="240" y="50"/><rect height="10" width="10" x="240" y="40"/><rect height="10" width="10" x="240" y="30"/><rect height="10" width="10" x="240" y="20"/><rect height="10" width="10" x="240" y="10"/><rect height="10" width="10" x="240" y="0"/></g></svg>