<svg width="330" height="330" xmlns="http://www.w3.org/2000/svg" xlink="http://www.w3.org/1999/xlink"><rect width="100%" fill="#ffffff" height="100%"/><g fill="#000000"><rect width="10" y="280" x="40" height="10"/><rect width="10" y="270" x="40" height="10"/><rect width="10" y="260" x="40" height="10"/><rect width="10" y="250" x="40" height="10"/><rect width="10" y="240" x="40" height="10"/><rect width="10" y="230" x="40" height="10"/><rect width="10" y="220" x="40" height="10"/><rect width="10" y="180" x="40" height="10"/><rect width="10" y="160" x="40" height="10"/><rect width="10" y="150" x="40" height="10"/><rect width="10" y="140" x="40" height="10"/><rect width="10" y="100" x="40" height="10"/><rect width="10" y="90" x="40" height="10"/><rect width="10" y="80" x="40" height="10"/><rect width="10" y="70" x="40" height="10"/><rect width="10" y="60" x="40" height="10"/><rect width="10" y="50" x="40" height="10"/><rect width="10" y="40" x="40" height="10"/><rect width="10" y="280" x="50" height="10"/><rect width="10" y="220" x="50" height="10"/><rect width="10" y="200" x="50" height="10"/><rect width="10" y="120" x="50" height="10"/><rect width="10" y="100" x="50" height="10"/><rect width="10" y="40" x="50" height="10"/><rect width="10" y="280" x="60" height="10"/><rect width="10" y="260" x="60" height="10"/><rect width="10" y="250" x="60" height="10"/><rect width="10" y="240" x="60" height="10"/><rect width="10" y="220" x="60" height="10"/><rect width="10" y="190" x="60" height="10"/><rect width="10" y="160" x="60" height="10"/><rect width="10" y="150" x="60" height="10"/><rect width="10" y="130" x="60" height="10"/><rect width="10" y="100" x="60" height="10"/><rect width="10" y="80" x="60" height="10"/><rect width="10" y="70" x="60" height="10"/><rect width="10" y="60" x="60" height="10"/><rect width="10" y="40" x="60" height="10"/><rect width="10" y="280" x="70" height="10"/><rect width="10" y="260" x="70" height="10"/><rect width="10" y="250" x="70" height="10"/><rect width="10" y="240" x="70" height="10"/><rect width="10" y="220" x="70" height="10"/><rect width="10" y="190" x="70" height="10"/><rect width="10" y="170" x="70" height="10"/><rect width="10" y="140" x="70" height="10"/><rect width="10" y="100" x="70" height="10"/><rect width="10" y="80" x="70" height="10"/><rect width="10" y="70" x="70" height="10"/><rect width="10" y="60" x="70" height="10"/><rect width="10" y="40" x="70" height="10"/><rect width="10" y="280" x="80" height="10"/><rect width="10" y="260" x="80" height="10"/><rect width="10" y="250" x="80" height="10"/><rect width="10" y="240" x="80" height="10"/><rect width="10" y="220" x="80" height="10"/><rect width="10" y="150" x="80" height="10"/><rect width="10" y="100" x="80" height="10"/><rect width="10" y="80" x="80" height="10"/><rect width="10" y="70" x="80" height="10"/><rect width="10" y="60" x="80" height="10"/><rect width="10" y="40" x="80" height="10"/><rect width="10" y="280" x="90" height="10"/><rect width="10" y="220" x="90" height="10"/><rect width="10" y="200" x="90" height="10"/><rect width="10" y="170" x="90" height="10"/><rect width="10" y="160" x="90" height="10"/><rect width="10" y="120" x="90" height="10"/><rect width="10" y="100" x="90" height="10"/><rect width="10" y="40" x="90" height="10"/><rect width="10" y="280" x="100" height="10"/><rect width="10" y="270" x="100" height="10"/><rect width="10" y="260" x="100" height="10"/><rect width="10" y="250" x="100" height="10"/><rect width="10" y="240" x="100" height="10"/><rect width="10" y="230" x="100" height="10"/><rect width="10" y="220" x="100" height="10"/><rect width="10" y="200" x="100" height="10"/><rect width="10" y="180" x="100" height="10"/><rect width="10" y="160" x="100" height="10"/><rect width="10" y="140" x="100" height="10"/><rect width="10" y="100" x="100" height="10"/><rect width="10" y="90" x="100" height="10"/><rect width="10" y="80" x="100" height="10"/><rect width="10" y="70" x="100" height="10"/><rect width="10" y="60" x="100" height="10"/><rect width="10" y="50" x="100" height="10"/><rect width="10" y="40" x="100" height="10"/><rect width="10" y="200" x="110" height="10"/><rect width="10" y="180" x="110" height="10"/><rect width="10" y="160" x="110" height="10"/><rect width="10" y="140" x="110" height="10"/><rect width="10" y="130" x="110" height="10"/><rect width="10" y="120" x="110" height="10"/><rect width="10" y="270" x="120" height="10"/><rect width="10" y="230" x="120" height="10"/><rect width="10" y="220" x="120" height="10"/><rect width="10" y="190" x="120" height="10"/><rect width="10" y="180" x="120" height="10"/><rect width="10" y="160" x="120" height="10"/><rect width="10" y="130" x="120" height="10"/><rect width="10" y="110" x="120" height="10"/><rect width="10" y="90" x="120" height="10"/><rect width="10" y="80" x="120" height="10"/><rect width="10" y="260" x="130" height="10"/><rect width="10" y="250" x="130" height="10"/><rect width="10" y="240" x="130" height="10"/><rect width="10" y="190" x="130" height="10"/><rect width="10" y="170" x="130" height="10"/><rect width="10" y="160" x="130" height="10"/><rect width="10" y="140" x="130" height="10"/><rect width="10" y="130" x="130" height="10"/><rect width="10" y="120" x="130" height="10"/><rect width="10" y="90" x="130" height="10"/><rect width="10" y="50" x="130" height="10"/><rect width="10" y="40" x="130" height="10"/><rect width="10" y="260" x="140" height="10"/><rect width="10" y="250" x="140" height="10"/><rect width="10" y="240" x="140" height="10"/><rect width="10" y="220" x="140" height="10"/><rect width="10" y="200" x="140" height="10"/><rect width="10" y="190" x="140" height="10"/><rect width="10" y="170" x="140" height="10"/><rect width="10" y="150" x="140" height="10"/><rect width="10" y="140" x="140" height="10"/><rect width="10" y="110" x="140" height="10"/><rect width="10" y="100" x="140" height="10"/><rect width="10" y="90" x="140" height="10"/><rect width="10" y="70" x="140" height="10"/><rect width="10" y="60" x="140" height="10"/><rect width="10" y="50" x="140" height="10"/><rect width="10" y="260" x="150" height="10"/><rect width="10" y="210" x="150" height="10"/><rect width="10" y="200" x="150" height="10"/><rect width="10" y="170" x="150" height="10"/><rect width="10" y="160" x="150" height="10"/><rect width="10" y="150" x="150" height="10"/><rect width="10" y="130" x="150" height="10"/><rect width="10" y="120" x="150" height="10"/><rect width="10" y="80" x="150" height="10"/><rect width="10" y="70" x="150" height="10"/><rect width="10" y="40" x="150" height="10"/><rect width="10" y="280" x="160" height="10"/><rect width="10" y="270" x="160" height="10"/><rect width="10" y="260" x="160" height="10"/><rect width="10" y="220" x="160" height="10"/><rect width="10" y="210" x="160" height="10"/><rect width="10" y="160" x="160" height="10"/><rect width="10" y="150" x="160" height="10"/><rect width="10" y="130" x="160" height="10"/><rect width="10" y="110" x="160" height="10"/><rect width="10" y="100" x="160" height="10"/><rect width="10" y="90" x="160" height="10"/><rect width="10" y="60" x="160" height="10"/><rect width="10" y="260" x="170" height="10"/><rect width="10" y="250" x="170" height="10"/><rect width="10" y="240" x="170" height="10"/><rect width="10" y="200" x="170" height="10"/><rect width="10" y="180" x="170" height="10"/><rect width="10" y="170" x="170" height="10"/><rect width="10" y="140" x="170" height="10"/><rect width="10" y="120" x="170" height="10"/><rect width="10" y="110" x="170" height="10"/><rect width="10" y="70" x="170" height="10"/><rect width="10" y="60" x="170" height="10"/><rect width="10" y="40" x="170" height="10"/><rect width="10" y="260" x="180" height="10"/><rect width="10" y="250" x="180" height="10"/><rect width="10" y="240" x="180" height="10"/><rect width="10" y="230" x="180" height="10"/><rect width="10" y="200" x="180" height="10"/><rect width="10" y="160" x="180" height="10"/><rect width="10" y="150" x="180" height="10"/><rect width="10" y="130" x="180" height="10"/><rect width="10" y="100" x="180" height="10"/><rect width="10" y="90" x="180" height="10"/><rect width="10" y="80" x="180" height="10"/><rect width="10" y="270" x="190" height="10"/><rect width="10" y="260" x="190" height="10"/><rect width="10" y="240" x="190" height="10"/><rect width="10" y="230" x="190" height="10"/><rect width="10" y="210" x="190" height="10"/><rect width="10" y="170" x="190" height="10"/><rect width="10" y="150" x="190" height="10"/><rect width="10" y="130" x="190" height="10"/><rect width="10" y="120" x="190" height="10"/><rect width="10" y="110" x="190" height="10"/><rect width="10" y="80" x="190" height="10"/><rect width="10" y="70" x="190" height="10"/><rect width="10" y="260" x="200" height="10"/><rect width="10" y="240" x="200" height="10"/><rect width="10" y="230" x="200" height="10"/><rect width="10" y="220" x="200" height="10"/><rect width="10" y="210" x="200" height="10"/><rect width="10" y="200" x="200" height="10"/><rect width="10" y="190" x="200" height="10"/><rect width="10" y="180" x="200" height="10"/><rect width="10" y="150" x="200" height="10"/><rect width="10" y="120" x="200" height="10"/><rect width="10" y="100" x="200" height="10"/><rect width="10" y="60" x="200" height="10"/><rect width="10" y="50" x="200" height="10"/><rect width="10" y="40" x="200" height="10"/><rect width="10" y="280" x="210" height="10"/><rect width="10" y="260" x="210" height="10"/><rect width="10" y="250" x="210" height="10"/><rect width="10" y="240" x="210" height="10"/><rect width="10" y="200" x="210" height="10"/><rect width="10" y="190" x="210" height="10"/><rect width="10" y="180" x="210" height="10"/><rect width="10" y="140" x="210" height="10"/><rect width="10" y="130" x="210" height="10"/><rect width="10" y="120" x="210" height="10"/><rect width="10" y="240" x="220" height="10"/><rect width="10" y="220" x="220" height="10"/><rect width="10" y="200" x="220" height="10"/><rect width="10" y="190" x="220" height="10"/><rect width="10" y="180" x="220" height="10"/><rect width="10" y="170" x="220" height="10"/><rect width="10" y="160" x="220" height="10"/><rect width="10" y="150" x="220" height="10"/><rect width="10" y="140" x="220" height="10"/><rect width="10" y="130" x="220" height="10"/><rect width="10" y="120" x="220" height="10"/><rect width="10" y="100" x="220" height="10"/><rect width="10" y="90" x="220" height="10"/><rect width="10" y="80" x="220" height="10"/><rect width="10" y="70" x="220" height="10"/><rect width="10" y="60" x="220" height="10"/><rect width="10" y="50" x="220" height="10"/><rect width="10" y="40" x="220" height="10"/><rect width="10" y="280" x="230" height="10"/><rect width="10" y="260" x="230" height="10"/><rect width="10" y="250" x="230" height="10"/><rect width="10" y="240" x="230" height="10"/><rect width="10" y="200" x="230" height="10"/><rect width="10" y="190" x="230" height="10"/><rect width="10" y="180" x="230" height="10"/><rect width="10" y="160" x="230" height="10"/><rect width="10" y="150" x="230" height="10"/><rect width="10" y="140" x="230" height="10"/><rect width="10" y="120" x="230" height="10"/><rect width="10" y="100" x="230" height="10"/><rect width="10" y="40" x="230" height="10"/><rect width="10" y="260" x="240" height="10"/><rect width="10" y="240" x="240" height="10"/><rect width="10" y="230" x="240" height="10"/><rect width="10" y="220" x="240" height="10"/><rect width="10" y="210" x="240" height="10"/><rect width="10" y="200" x="240" height="10"/><rect width="10" y="150" x="240" height="10"/><rect width="10" y="130" x="240" height="10"/><rect width="10" y="120" x="240" height="10"/><rect width="10" y="100" x="240" height="10"/><rect width="10" y="80" x="240" height="10"/><rect width="10" y="70" x="240" height="10"/><rect width="10" y="60" x="240" height="10"/><rect width="10" y="40" x="240" height="10"/><rect width="10" y="280" x="250" height="10"/><rect width="10" y="230" x="250" height="10"/><rect width="10" y="220" x="250" height="10"/><rect width="10" y="190" x="250" height="10"/><rect width="10" y="180" x="250" height="10"/><rect width="10" y="170" x="250" height="10"/><rect width="10" y="150" x="250" height="10"/><rect width="10" y="140" x="250" height="10"/><rect width="10" y="100" x="250" height="10"/><rect width="10" y="80" x="250" height="10"/><rect width="10" y="70" x="250" height="10"/><rect width="10" y="60" x="250" height="10"/><rect width="10" y="40" x="250" height="10"/><rect width="10" y="270" x="260" height="10"/><rect width="10" y="260" x="260" height="10"/><rect width="10" y="250" x="260" height="10"/><rect width="10" y="230" x="260" height="10"/><rect width="10" y="210" x="260" height="10"/><rect width="10" y="200" x="260" height="10"/><rect width="10" y="190" x="260" height="10"/><rect width="10" y="180" x="260" height="10"/><rect width="10" y="170" x="260" height="10"/><rect width="10" y="140" x="260" height="10"/><rect width="10" y="130" x="260" height="10"/><rect width="10" y="100" x="260" height="10"/><rect width="10" y="80" x="260" height="10"/><rect width="10" y="70" x="260" height="10"/><rect width="10" y="60" x="260" height="10"/><rect width="10" y="40" x="260" height="10"/><rect width="10" y="270" x="270" height="10"/><rect width="10" y="260" x="270" height="10"/><rect width="10" y="240" x="270" height="10"/><rect width="10" y="230" x="270" height="10"/><rect width="10" y="220" x="270" height="10"/><rect width="10" y="200" x="270" height="10"/><rect width="10" y="190" x="270" height="10"/><rect width="10" y="100" x="270" height="10"/><rect width="10" y="40" x="270" height="10"/><rect width="10" y="280" x="280" height="10"/><rect width="10" y="270" x="280" height="10"/><rect width="10" y="250" x="280" height="10"/><rect width="10" y="240" x="280" height="10"/><rect width="10" y="200" x="280" height="10"/><rect width="10" y="190" x="280" height="10"/><rect width="10" y="180" x="280" height="10"/><rect width="10" y="160" x="280" height="10"/><rect width="10" y="140" x="280" height="10"/><rect width="10" y="100" x="280" height="10"/><rect width="10" y="90" x="280" height="10"/><rect width="10" y="80" x="280" height="10"/><rect width="10" y="70" x="280" height="10"/><rect width="10" y="60" x="280" height="10"/><rect width="10" y="50" x="280" height="10"/><rect width="10" y="40" x="280" height="10"/></g></svg>