<svg height="330" width="330" xlink="http://www.w3.org/1999/xlink" xmlns="http://www.w3.org/2000/svg">
  <rect fill="#ffffff" height="100%" width="100%"/>
  <rect fill="#11AA88" height="10" width="10" x="0" y="320"/>
  <rect fill="#11AA88" height="10" width="10" x="0" y="310"/>
  <rect fill="#11AA88" height="10" width="10" x="0" y="300"/>
  <rect fill="#11AA88" height="10" width="10" x="0" y="290"/>
  <rect fill="#11AA88" height="10" width="10" x="0" y="280"/>
  <rect fill="#11AA88" height="10" width="10" x="0" y="270"/>
  <rect fill="#11AA88" height="10" width="10" x="0" y="260"/>
  <rect fill="#11AA88" height="10" width="10" x="0" y="230"/>
  <rect fill="#11AA88" height="10" width="10" x="0" y="210"/>
  <rect fill="#11AA88" height="10" width="10" x="0" y="160"/>
  <rect fill="#11AA88" height="10" width="10" x="0" y="140"/>
  <rect fill="#11AA88" height="10" width="10" x="0" y="130"/>
  <rect fill="#11AA88" height="10" width="10" x="0" y="80"/>
  <rect fill="#11AA88" height="10" width="10" x="0" y="60"/>
  <rect fill="#11AA88" height="10" width="10" x="0" y="50"/>
  <rect fill="#11AA88" height="10" width="10" x="0" y="40"/>
  <rect fill="#11AA88" height="10" width="10" x="0" y="30"/>
  <rect fill="#11AA88" height="10" width="10" x="0" y="20"/>
  <rect fill="#11AA88" height="10" width="10" x="0" y="10"/>
  <rect fill="#11AA88" height="10" width="10" x="0" y="0"/>
  <rect fill="#11AA88" height="10" width="10" x="10" y="320"/>
  <rect fill="#11AA88" height="10" width="10" x="10" y="260"/>
  <rect fill="#11AA88" height="10" width="10" x="10" y="240"/>
  <rect fill="#11AA88" height="10" width="10" x="10" y="190"/>
  <rect fill="#11AA88" height="10" width="10" x="10" y="180"/>
  <rect fill="#11AA88" height="10" width="10" x="10" y="170"/>
  <rect fill="#11AA88" height="10" width="10" x="10" y="150"/>
  <rect fill="#11AA88" height="10" width="10" x="10" y="140"/>
  <rect fill="#11AA88" height="10" width="10" x="10" y="130"/>
  <rect fill="#11AA88" height="10" width="10" x="10" y="120"/>
  <rect fill="#11AA88" height="10" width="10" x="10" y="110"/>
  <rect fill="#11AA88" height="10" width="10" x="10" y="80"/>
  <rect fill="#11AA88" height="10" width="10" x="10" y="60"/>
  <rect fill="#11AA88" height="10" width="10" x="10" y="0"/>
  <rect fill="#11AA88" height="10" width="10" x="20" y="320"/>
  <rect fill="#11AA88" height="10" width="10" x="20" y="300"/>
  <rect fill="#11AA88" height="10" width="10" x="20" y="290"/>
  <rect fill="#11AA88" height="10" width="10" x="20" y="280"/>
  <rect fill="#11AA88" height="10" width="10" x="20" y="260"/>
  <rect fill="#11AA88" height="10" width="10" x="20" y="230"/>
  <rect fill="#11AA88" height="10" width="10" x="20" y="210"/>
  <rect fill="#11AA88" height="10" width="10" x="20" y="170"/>
  <rect fill="#11AA88" height="10" width="10" x="20" y="140"/>
  <rect fill="#11AA88" height="10" width="10" x="20" y="120"/>
  <rect fill="#11AA88" height="10" width="10" x="20" y="90"/>
  <rect fill="#11AA88" height="10" width="10" x="20" y="80"/>
  <rect fill="#11AA88" height="10" width="10" x="20" y="60"/>
  <rect fill="#11AA88" height="10" width="10" x="20" y="40"/>
  <rect fill="#11AA88" height="10" width="10" x="20" y="30"/>
  <rect fill="#11AA88" height="10" width="10" x="20" y="20"/>
  <rect fill="#11AA88" height="10" width="10" x="20" y="0"/>
  <rect fill="#11AA88" height="10" width="10" x="30" y="320"/>
  <rect fill="#11AA88" height="10" width="10" x="30" y="300"/>
  <rect fill="#11AA88" height="10" width="10" x="30" y="290"/>
  <rect fill="#11AA88" height="10" width="10" x="30" y="280"/>
  <rect fill="#11AA88" height="10" width="10" x="30" y="260"/>
  <rect fill="#11AA88" height="10" width="10" x="30" y="230"/>
  <rect fill="#11AA88" height="10" width="10" x="30" y="180"/>
  <rect fill="#11AA88" height="10" width="10" x="30" y="120"/>
  <rect fill="#11AA88" height="10" width="10" x="30" y="100"/>
  <rect fill="#11AA88" height="10" width="10" x="30" y="90"/>
  <rect fill="#11AA88" height="10" width="10" x="30" y="80"/>
  <rect fill="#11AA88" height="10" width="10" x="30" y="60"/>
  <rect fill="#11AA88" height="10" width="10" x="30" y="40"/>
  <rect fill="#11AA88" height="10" width="10" x="30" y="30"/>
  <rect fill="#11AA88" height="10" width="10" x="30" y="20"/>
  <rect fill="#11AA88" height="10" width="10" x="30" y="0"/>
  <rect fill="#11AA88" height="10" width="10" x="40" y="320"/>
  <rect fill="#11AA88" height="10" width="10" x="40" y="300"/>
  <rect fill="#11AA88" height="10" width="10" x="40" y="290"/>
  <rect fill="#11AA88" height="10" width="10" x="40" y="280"/>
  <rect fill="#11AA88" height="10" width="10" x="40" y="260"/>
  <rect fill="#11AA88" height="10" width="10" x="40" y="240"/>
  <rect fill="#11AA88" height="10" width="10" x="40" y="230"/>
  <rect fill="#11AA88" height="10" width="10" x="40" y="220"/>
  <rect fill="#11AA88" height="10" width="10" x="40" y="180"/>
  <rect fill="#11AA88" height="10" width="10" x="40" y="170"/>
  <rect fill="#11AA88" height="10" width="10" x="40" y="120"/>
  <rect fill="#11AA88" height="10" width="10" x="40" y="100"/>
  <rect fill="#11AA88" height="10" width="10" x="40" y="90"/>
  <rect fill="#11AA88" height="10" width="10" x="40" y="60"/>
  <rect fill="#11AA88" height="10" width="10" x="40" y="40"/>
  <rect fill="#11AA88" height="10" width="10" x="40" y="30"/>
  <rect fill="#11AA88" height="10" width="10" x="40" y="20"/>
  <rect fill="#11AA88" height="10" width="10" x="40" y="0"/>
  <rect fill="#11AA88" height="10" width="10" x="50" y="320"/>
  <rect fill="#11AA88" height="10" width="10" x="50" y="260"/>
  <rect fill="#11AA88" height="10" width="10" x="50" y="240"/>
  <rect fill="#11AA88" height="10" width="10" x="50" y="220"/>
  <rect fill="#11AA88" height="10" width="10" x="50" y="200"/>
  <rect fill="#11AA88" height="10" width="10" x="50" y="190"/>
  <rect fill="#11AA88" height="10" width="10" x="50" y="160"/>
  <rect fill="#11AA88" height="10" width="10" x="50" y="100"/>
  <rect fill="#11AA88" height="10" width="10" x="50" y="90"/>
  <rect fill="#11AA88" height="10" width="10" x="50" y="80"/>
  <rect fill="#11AA88" height="10" width="10" x="50" y="60"/>
  <rect fill="#11AA88" height="10" width="10" x="50" y="0"/>
  <rect fill="#11AA88" height="10" width="10" x="60" y="320"/>
  <rect fill="#11AA88" height="10" width="10" x="60" y="310"/>
  <rect fill="#11AA88" height="10" width="10" x="60" y="300"/>
  <rect fill="#11AA88" height="10" width="10" x="60" y="290"/>
  <rect fill="#11AA88" height="10" width="10" x="60" y="280"/>
  <rect fill="#11AA88" height="10" width="10" x="60" y="270"/>
  <rect fill="#11AA88" height="10" width="10" x="60" y="260"/>
  <rect fill="#11AA88" height="10" width="10" x="60" y="240"/>
  <rect fill="#11AA88" height="10" width="10" x="60" y="220"/>
  <rect fill="#11AA88" height="10" width="10" x="60" y="200"/>
  <rect fill="#11AA88" height="10" width="10" x="60" y="180"/>
  <rect fill="#11AA88" height="10" width="10" x="60" y="160"/>
  <rect fill="#11AA88" height="10" width="10" x="60" y="140"/>
  <rect fill="#11AA88" height="10" width="10" x="60" y="120"/>
  <rect fill="#11AA88" height="10" width="10" x="60" y="100"/>
  <rect fill="#11AA88" height="10" width="10" x="60" y="60"/>
  <rect fill="#11AA88" height="10" width="10" x="60" y="50"/>
  <rect fill="#11AA88" height="10" width="10" x="60" y="40"/>
  <rect fill="#11AA88" height="10" width="10" x="60" y="30"/>
  <rect fill="#11AA88" height="10" width="10" x="60" y="20"/>
  <rect fill="#11AA88" height="10" width="10" x="60" y="10"/>
  <rect fill="#11AA88" height="10" width="10" x="60" y="0"/>
  <rect fill="#11AA88" height="10" width="10" x="70" y="240"/>
  <rect fill="#11AA88" height="10" width="10" x="70" y="230"/>
  <rect fill="#11AA88" height="10" width="10" x="70" y="220"/>
  <rect fill="#11AA88" height="10" width="10" x="70" y="210"/>
  <rect fill="#11AA88" height="10" width="10" x="70" y="170"/>
  <rect fill="#11AA88" height="10" width="10" x="70" y="160"/>
  <rect fill="#11AA88" height="10" width="10" x="70" y="150"/>
  <rect fill="#11AA88" height="10" width="10" x="70" y="130"/>
  <rect fill="#11AA88" height="10" width="10" x="70" y="110"/>
  <rect fill="#11AA88" height="10" width="10" x="70" y="100"/>
  <rect fill="#11AA88" height="10" width="10" x="80" y="320"/>
  <rect fill="#11AA88" height="10" width="10" x="80" y="310"/>
  <rect fill="#11AA88" height="10" width="10" x="80" y="300"/>
  <rect fill="#11AA88" height="10" width="10" x="80" y="290"/>
  <rect fill="#11AA88" height="10" width="10" x="80" y="270"/>
  <rect fill="#11AA88" height="10" width="10" x="80" y="210"/>
  <rect fill="#11AA88" height="10" width="10" x="80" y="200"/>
  <rect fill="#11AA88" height="10" width="10" x="80" y="170"/>
  <rect fill="#11AA88" height="10" width="10" x="80" y="130"/>
  <rect fill="#11AA88" height="10" width="10" x="80" y="120"/>
  <rect fill="#11AA88" height="10" width="10" x="80" y="100"/>
  <rect fill="#11AA88" height="10" width="10" x="80" y="50"/>
  <rect fill="#11AA88" height="10" width="10" x="80" y="40"/>
  <rect fill="#11AA88" height="10" width="10" x="80" y="10"/>
  <rect fill="#11AA88" height="10" width="10" x="80" y="0"/>
  <rect fill="#11AA88" height="10" width="10" x="90" y="310"/>
  <rect fill="#11AA88" height="10" width="10" x="90" y="300"/>
  <rect fill="#11AA88" height="10" width="10" x="90" y="270"/>
  <rect fill="#11AA88" height="10" width="10" x="90" y="250"/>
  <rect fill="#11AA88" height="10" width="10" x="90" y="230"/>
  <rect fill="#11AA88" height="10" width="10" x="90" y="180"/>
  <rect fill="#11AA88" height="10" width="10" x="90" y="160"/>
  <rect fill="#11AA88" height="10" width="10" x="90" y="140"/>
  <rect fill="#11AA88" height="10" width="10" x="90" y="130"/>
  <rect fill="#11AA88" height="10" width="10" x="90" y="50"/>
  <rect fill="#11AA88" height="10" width="10" x="90" y="40"/>
  <rect fill="#11AA88" height="10" width="10" x="90" y="30"/>
  <rect fill="#11AA88" height="10" width="10" x="90" y="20"/>
  <rect fill="#11AA88" height="10" width="10" x="100" y="290"/>
  <rect fill="#11AA88" height="10" width="10" x="100" y="280"/>
  <rect fill="#11AA88" height="10" width="10" x="100" y="270"/>
  <rect fill="#11AA88" height="10" width="10" x="100" y="260"/>
  <rect fill="#11AA88" height="10" width="10" x="100" y="250"/>
  <rect fill="#11AA88" height="10" width="10" x="100" y="240"/>
  <rect fill="#11AA88" height="10" width="10" x="100" y="230"/>
  <rect fill="#11AA88" height="10" width="10" x="100" y="220"/>
  <rect fill="#11AA88" height="10" width="10" x="100" y="210"/>
  <rect fill="#11AA88" height="10" width="10" x="100" y="200"/>
  <rect fill="#11AA88" height="10" width="10" x="100" y="180"/>
  <rect fill="#11AA88" height="10" width="10" x="100" y="170"/>
  <rect fill="#11AA88" height="10" width="10" x="100" y="160"/>
  <rect fill="#11AA88" height="10" width="10" x="100" y="100"/>
  <rect fill="#11AA88" height="10" width="10" x="100" y="90"/>
  <rect fill="#11AA88" height="10" width="10" x="100" y="60"/>
  <rect fill="#11AA88" height="10" width="10" x="100" y="30"/>
  <rect fill="#11AA88" height="10" width="10" x="100" y="0"/>
  <rect fill="#11AA88" height="10" width="10" x="110" y="260"/>
  <rect fill="#11AA88" height="10" width="10" x="110" y="250"/>
  <rect fill="#11AA88" height="10" width="10" x="110" y="240"/>
  <rect fill="#11AA88" height="10" width="10" x="110" y="230"/>
  <rect fill="#11AA88" height="10" width="10" x="110" y="220"/>
  <rect fill="#11AA88" height="10" width="10" x="110" y="210"/>
  <rect fill="#11AA88" height="10" width="10" x="110" y="190"/>
  <rect fill="#11AA88" height="10" width="10" x="110" y="180"/>
  <rect fill="#11AA88" height="10" width="10" x="110" y="170"/>
  <rect fill="#11AA88" height="10" width="10" x="110" y="140"/>
  <rect fill="#11AA88" height="10" width="10" x="110" y="120"/>
  <rect fill="#11AA88" height="10" width="10" x="110" y="90"/>
  <rect fill="#11AA88" height="10" width="10" x="110" y="40"/>
  <rect fill="#11AA88" height="10" width="10" x="110" y="30"/>
  <rect fill="#11AA88" height="10" width="10" x="110" y="0"/>
  <rect fill="#11AA88" height="10" width="10" x="120" y="320"/>
  <rect fill="#11AA88" height="10" width="10" x="120" y="290"/>
  <rect fill="#11AA88" height="10" width="10" x="120" y="280"/>
  <rect fill="#11AA88" height="10" width="10" x="120" y="260"/>
  <rect fill="#11AA88" height="10" width="10" x="120" y="240"/>
  <rect fill="#11AA88" height="10" width="10" x="120" y="220"/>
  <rect fill="#11AA88" height="10" width="10" x="120" y="210"/>
  <rect fill="#11AA88" height="10" width="10" x="120" y="200"/>
  <rect fill="#11AA88" height="10" width="10" x="120" y="190"/>
  <rect fill="#11AA88" height="10" width="10" x="120" y="170"/>
  <rect fill="#11AA88" height="10" width="10" x="120" y="150"/>
  <rect fill="#11AA88" height="10" width="10" x="120" y="140"/>
  <rect fill="#11AA88" height="10" width="10" x="120" y="130"/>
  <rect fill="#11AA88" height="10" width="10" x="120" y="110"/>
  <rect fill="#11AA88" height="10" width="10" x="120" y="80"/>
  <rect fill="#11AA88" height="10" width="10" x="120" y="70"/>
  <rect fill="#11AA88" height="10" width="10" x="120" y="60"/>
  <rect fill="#11AA88" height="10" width="10" x="120" y="50"/>
  <rect fill="#11AA88" height="10" width="10" x="120" y="40"/>
  <rect fill="#11AA88" height="10" width="10" x="120" y="30"/>
  <rect fill="#11AA88" height="10" width="10" x="120" y="0"/>
  <rect fill="#11AA88" height="10" width="10" x="130" y="310"/>
  <rect fill="#11AA88" height="10" width="10" x="130" y="300"/>
  <rect fill="#11AA88" height="10" width="10" x="130" y="290"/>
  <rect fill="#11AA88" height="10" width="10" x="130" y="270"/>
  <rect fill="#11AA88" height="10" width="10" x="130" y="230"/>
  <rect fill="#11AA88" height="10" width="10" x="130" y="210"/>
  <rect fill="#11AA88" height="10" width="10" x="130" y="190"/>
  <rect fill="#11AA88" height="10" width="10" x="130" y="120"/>
  <rect fill="#11AA88" height="10" width="10" x="130" y="100"/>
  <rect fill="#11AA88" height="10" width="10" x="130" y="80"/>
  <rect fill="#11AA88" height="10" width="10" x="130" y="30"/>
  <rect fill="#11AA88" height="10" width="10" x="130" y="10"/>
  <rect fill="#11AA88" height="10" width="10" x="130" y="0"/>
  <rect fill="#11AA88" height="10" width="10" x="140" y="310"/>
  <rect fill="#11AA88" height="10" width="10" x="140" y="300"/>
  <rect fill="#11AA88" height="10" width="10" x="140" y="280"/>
  <rect fill="#11AA88" height="10" width="10" x="140" y="270"/>
  <rect fill="#11AA88" height="10" width="10" x="140" y="250"/>
  <rect fill="#11AA88" height="10" width="10" x="140" y="230"/>
  <rect fill="#11AA88" height="10" width="10" x="140" y="220"/>
  <rect fill="#11AA88" height="10" width="10" x="140" y="150"/>
  <rect fill="#11AA88" height="10" width="10" x="140" y="140"/>
  <rect fill="#11AA88" height="10" width="10" x="140" y="130"/>
  <rect fill="#11AA88" height="10" width="10" x="140" y="120"/>
  <rect fill="#11AA88" height="10" width="10" x="140" y="110"/>
  <rect fill="#11AA88" height="10" width="10" x="140" y="70"/>
  <rect fill="#11AA88" height="10" width="10" x="140" y="60"/>
  <rect fill="#11AA88" height="10" width="10" x="140" y="40"/>
  <rect fill="#11AA88" height="10" width="10" x="140" y="20"/>
  <rect fill="#11AA88" height="10" width="10" x="140" y="10"/>
  <rect fill="#11AA88" height="10" width="10" x="140" y="0"/>
  <rect fill="#11AA88" height="10" width="10" x="150" y="320"/>
  <rect fill="#11AA88" height="10" width="10" x="150" y="280"/>
  <rect fill="#11AA88" height="10" width="10" x="150" y="270"/>
  <rect fill="#11AA88" height="10" width="10" x="150" y="260"/>
  <rect fill="#11AA88" height="10" width="10" x="150" y="240"/>
  <rect fill="#11AA88" height="10" width="10" x="150" y="230"/>
  <rect fill="#11AA88" height="10" width="10" x="150" y="210"/>
  <rect fill="#11AA88" height="10" width="10" x="150" y="190"/>
  <rect fill="#11AA88" height="10" width="10" x="150" y="180"/>
  <rect fill="#11AA88" height="10" width="10" x="150" y="170"/>
  <rect fill="#11AA88" height="10" width="10" x="150" y="160"/>
  <rect fill="#11AA88" height="10" width="10" x="150" y="150"/>
  <rect fill="#11AA88" height="10" width="10" x="150" y="130"/>
  <rect fill="#11AA88" height="10" width="10" x="150" y="110"/>
  <rect fill="#11AA88" height="10" width="10" x="150" y="100"/>
  <rect fill="#11AA88" height="10" width="10" x="150" y="80"/>
  <rect fill="#11AA88" height="10" width="10" x="150" y="70"/>
  <rect fill="#11AA88" height="10" width="10" x="150" y="50"/>
  <rect fill="#11AA88" height="10" width="10" x="150" y="30"/>
  <rect fill="#11AA88" height="10" width="10" x="150" y="20"/>
  <rect fill="#11AA88" height="10" width="10" x="150" y="10"/>
  <rect fill="#11AA88" height="10" width="10" x="150" y="0"/>
  <rect fill="#11AA88" height="10" width="10" x="160" y="280"/>
  <rect fill="#11AA88" height="10" width="10" x="160" y="260"/>
  <rect fill="#11AA88" height="10" width="10" x="160" y="240"/>
  <rect fill="#11AA88" height="10" width="10" x="160" y="230"/>
  <rect fill="#11AA88" height="10" width="10" x="160" y="220"/>
  <rect fill="#11AA88" height="10" width="10" x="160" y="210"/>
  <rect fill="#11AA88" height="10" width="10" x="160" y="200"/>
  <rect fill="#11AA88" height="10" width="10" x="160" y="180"/>
  <rect fill="#11AA88" height="10" width="10" x="160" y="170"/>
  <rect fill="#11AA88" height="10" width="10" x="160" y="150"/>
  <rect fill="#11AA88" height="10" width="10" x="160" y="130"/>
  <rect fill="#11AA88" height="10" width="10" x="160" y="120"/>
  <rect fill="#11AA88" height="10" width="10" x="160" y="100"/>
  <rect fill="#11AA88" height="10" width="10" x="160" y="90"/>
  <rect fill="#11AA88" height="10" width="10" x="160" y="80"/>
  <rect fill="#11AA88" height="10" width="10" x="160" y="70"/>
  <rect fill="#11AA88" height="10" width="10" x="160" y="60"/>
  <rect fill="#11AA88" height="10" width="10" x="160" y="30"/>
  <rect fill="#11AA88" height="10" width="10" x="170" y="310"/>
  <rect fill="#11AA88" height="10" width="10" x="170" y="250"/>
  <rect fill="#11AA88" height="10" width="10" x="170" y="230"/>
  <rect fill="#11AA88" height="10" width="10" x="170" y="210"/>
  <rect fill="#11AA88" height="10" width="10" x="170" y="200"/>
  <rect fill="#11AA88" height="10" width="10" x="170" y="190"/>
  <rect fill="#11AA88" height="10" width="10" x="170" y="180"/>
  <rect fill="#11AA88" height="10" width="10" x="170" y="160"/>
  <rect fill="#11AA88" height="10" width="10" x="170" y="150"/>
  <rect fill="#11AA88" height="10" width="10" x="170" y="140"/>
  <rect fill="#11AA88" height="10" width="10" x="170" y="130"/>
  <rect fill="#11AA88" height="10" width="10" x="170" y="100"/>
  <rect fill="#11AA88" height="10" width="10" x="170" y="90"/>
  <rect fill="#11AA88" height="10" width="10" x="170" y="70"/>
  <rect fill="#11AA88" height="10" width="10" x="170" y="20"/>
  <rect fill="#11AA88" height="10" width="10" x="170" y="10"/>
  <rect fill="#11AA88" height="10" width="10" x="180" y="310"/>
  <rect fill="#11AA88" height="10" width="10" x="180" y="290"/>
  <rect fill="#11AA88" height="10" width="10" x="180" y="280"/>
  <rect fill="#11AA88" height="10" width="10" x="180" y="250"/>
  <rect fill="#11AA88" height="10" width="10" x="180" y="230"/>
  <rect fill="#11AA88" height="10" width="10" x="180" y="220"/>
  <rect fill="#11AA88" height="10" width="10" x="180" y="210"/>
  <rect fill="#11AA88" height="10" width="10" x="180" y="170"/>
  <rect fill="#11AA88" height="10" width="10" x="180" y="150"/>
  <rect fill="#11AA88" height="10" width="10" x="180" y="90"/>
  <rect fill="#11AA88" height="10" width="10" x="180" y="70"/>
  <rect fill="#11AA88" height="10" width="10" x="180" y="60"/>
  <rect fill="#11AA88" height="10" width="10" x="180" y="50"/>
  <rect fill="#11AA88" height="10" width="10" x="180" y="40"/>
  <rect fill="#11AA88" height="10" width="10" x="180" y="30"/>
  <rect fill="#11AA88" height="10" width="10" x="180" y="10"/>
  <rect fill="#11AA88" height="10" width="10" x="180" y="0"/>
  <rect fill="#11AA88" height="10" width="10" x="190" y="310"/>
  <rect fill="#11AA88" height="10" width="10" x="190" y="280"/>
  <rect fill="#11AA88" height="10" width="10" x="190" y="250"/>
  <rect fill="#11AA88" height="10" width="10" x="190" y="230"/>
  <rect fill="#11AA88" height="10" width="10" x="190" y="210"/>
  <rect fill="#11AA88" height="10" width="10" x="190" y="200"/>
  <rect fill="#11AA88" height="10" width="10" x="190" y="190"/>
  <rect fill="#11AA88" height="10" width="10" x="190" y="170"/>
  <rect fill="#11AA88" height="10" width="10" x="190" y="160"/>
  <rect fill="#11AA88" height="10" width="10" x="190" y="140"/>
  <rect fill="#11AA88" height="10" width="10" x="190" y="120"/>
  <rect fill="#11AA88" height="10" width="10" x="190" y="90"/>
  <rect fill="#11AA88" height="10" width="10" x="190" y="50"/>
  <rect fill="#11AA88" height="10" width="10" x="190" y="40"/>
  <rect fill="#11AA88" height="10" width="10" x="190" y="30"/>
  <rect fill="#11AA88" height="10" width="10" x="190" y="0"/>
  <rect fill="#11AA88" height="10" width="10" x="200" y="310"/>
  <rect fill="#11AA88" height="10" width="10" x="200" y="280"/>
  <rect fill="#11AA88" height="10" width="10" x="200" y="270"/>
  <rect fill="#11AA88" height="10" width="10" x="200" y="260"/>
  <rect fill="#11AA88" height="10" width="10" x="200" y="250"/>
  <rect fill="#11AA88" height="10" width="10" x="200" y="240"/>
  <rect fill="#11AA88" height="10" width="10" x="200" y="220"/>
  <rect fill="#11AA88" height="10" width="10" x="200" y="210"/>
  <rect fill="#11AA88" height="10" width="10" x="200" y="200"/>
  <rect fill="#11AA88" height="10" width="10" x="200" y="150"/>
  <rect fill="#11AA88" height="10" width="10" x="200" y="140"/>
  <rect fill="#11AA88" height="10" width="10" x="200" y="130"/>
  <rect fill="#11AA88" height="10" width="10" x="200" y="110"/>
  <rect fill="#11AA88" height="10" width="10" x="200" y="100"/>
  <rect fill="#11AA88" height="10" width="10" x="200" y="60"/>
  <rect fill="#11AA88" height="10" width="10" x="200" y="40"/>
  <rect fill="#11AA88" height="10" width="10" x="200" y="30"/>
  <rect fill="#11AA88" height="10" width="10" x="200" y="20"/>
  <rect fill="#11AA88" height="10" width="10" x="200" y="0"/>
  <rect fill="#11AA88" height="10" width="10" x="210" y="310"/>
  <rect fill="#11AA88" height="10" width="10" x="210" y="300"/>
  <rect fill="#11AA88" height="10" width="10" x="210" y="270"/>
  <rect fill="#11AA88" height="10" width="10" x="210" y="250"/>
  <rect fill="#11AA88" height="10" width="10" x="210" y="240"/>
  <rect fill="#11AA88" height="10" width="10" x="210" y="230"/>
  <rect fill="#11AA88" height="10" width="10" x="210" y="210"/>
  <rect fill="#11AA88" height="10" width="10" x="210" y="200"/>
  <rect fill="#11AA88" height="10" width="10" x="210" y="180"/>
  <rect fill="#11AA88" height="10" width="10" x="210" y="160"/>
  <rect fill="#11AA88" height="10" width="10" x="210" y="150"/>
  <rect fill="#11AA88" height="10" width="10" x="210" y="120"/>
  <rect fill="#11AA88" height="10" width="10" x="210" y="100"/>
  <rect fill="#11AA88" height="10" width="10" x="210" y="70"/>
  <rect fill="#11AA88" height="10" width="10" x="210" y="50"/>
  <rect fill="#11AA88" height="10" width="10" x="210" y="30"/>
  <rect fill="#11AA88" height="10" width="10" x="210" y="0"/>
  <rect fill="#11AA88" height="10" width="10" x="220" y="310"/>
  <rect fill="#11AA88" height="10" width="10" x="220" y="230"/>
  <rect fill="#11AA88" height="10" width="10" x="220" y="210"/>
  <rect fill="#11AA88" height="10" width="10" x="220" y="200"/>
  <rect fill="#11AA88" height="10" width="10" x="220" y="150"/>
  <rect fill="#11AA88" height="10" width="10" x="220" y="140"/>
  <rect fill="#11AA88" height="10" width="10" x="220" y="130"/>
  <rect fill="#11AA88" height="10" width="10" x="220" y="120"/>
  <rect fill="#11AA88" height="10" width="10" x="220" y="110"/>
  <rect fill="#11AA88" height="10" width="10" x="220" y="60"/>
  <rect fill="#11AA88" height="10" width="10" x="220" y="50"/>
  <rect fill="#11AA88" height="10" width="10" x="220" y="40"/>
  <rect fill="#11AA88" height="10" width="10" x="230" y="320"/>
  <rect fill="#11AA88" height="10" width="10" x="230" y="240"/>
  <rect fill="#11AA88" height="10" width="10" x="230" y="230"/>
  <rect fill="#11AA88" height="10" width="10" x="230" y="220"/>
  <rect fill="#11AA88" height="10" width="10" x="230" y="210"/>
  <rect fill="#11AA88" height="10" width="10" x="230" y="200"/>
  <rect fill="#11AA88" height="10" width="10" x="230" y="170"/>
  <rect fill="#11AA88" height="10" width="10" x="230" y="160"/>
  <rect fill="#11AA88" height="10" width="10" x="230" y="130"/>
  <rect fill="#11AA88" height="10" width="10" x="230" y="110"/>
  <rect fill="#11AA88" height="10" width="10" x="230" y="90"/>
  <rect fill="#11AA88" height="10" width="10" x="230" y="80"/>
  <rect fill="#11AA88" height="10" width="10" x="230" y="50"/>
  <rect fill="#11AA88" height="10" width="10" x="230" y="40"/>
  <rect fill="#11AA88" height="10" width="10" x="240" y="320"/>
  <rect fill="#11AA88" height="10" width="10" x="240" y="290"/>
  <rect fill="#11AA88" height="10" width="10" x="240" y="280"/>
  <rect fill="#11AA88" height="10" width="10" x="240" y="270"/>
  <rect fill="#11AA88" height="10" width="10" x="240" y="260"/>
  <rect fill="#11AA88" height="10" width="10" x="240" y="250"/>
  <rect fill="#11AA88" height="10" width="10" x="240" y="240"/>
  <rect fill="#11AA88" height="10" width="10" x="240" y="220"/>
  <rect fill="#11AA88" height="10" width="10" x="240" y="210"/>
  <rect fill="#11AA88" height="10" width="10" x="240" y="190"/>
  <rect fill="#11AA88" height="10" width="10" x="240" y="170"/>
  <rect fill="#11AA88" height="10" width="10" x="240" y="160"/>
  <rect fill="#11AA88" height="10" width="10" x="240" y="130"/>
  <rect fill="#11AA88" height="10" width="10" x="240" y="120"/>
  <rect fill="#11AA88" height="10" width="10" x="240" y="60"/>
  <rect fill="#11AA88" height="10" width="10" x="240" y="10"/>
  <rect fill="#11AA88" height="10" width="10" x="240" y="0"/>
  <rect fill="#11AA88" height="10" width="10" x="250" y="320"/>
  <rect fill="#11AA88" height="10" width="10" x="250" y="310"/>
  <rect fill="#11AA88" height="10" width="10" x="250" y="300"/>
  <rect fill="#11AA88" height="10" width="10" x="250" y="290"/>
  <rect fill="#11AA88" height="10" width="10" x="250" y="280"/>
  <rect fill="#11AA88" height="10" width="10" x="250" y="240"/>
  <rect fill="#11AA88" height="10" width="10" x="250" y="210"/>
  <rect fill="#11AA88" height="10" width="10" x="250" y="160"/>
  <rect fill="#11AA88" height="10" width="10" x="250" y="150"/>
  <rect fill="#11AA88" height="10" width="10" x="250" y="140"/>
  <rect fill="#11AA88" height="10" width="10" x="250" y="130"/>
  <rect fill="#11AA88" height="10" width="10" x="250" y="80"/>
  <rect fill="#11AA88" height="10" width="10" x="260" y="310"/>
  <rect fill="#11AA88" height="10" width="10" x="260" y="290"/>
  <rect fill="#11AA88" height="10" width="10" x="260" y="280"/>
  <rect fill="#11AA88" height="10" width="10" x="260" y="260"/>
  <rect fill="#11AA88" height="10" width="10" x="260" y="240"/>
  <rect fill="#11AA88" height="10" width="10" x="260" y="210"/>
  <rect fill="#11AA88" height="10" width="10" x="260" y="200"/>
  <rect fill="#11AA88" height="10" width="10" x="260" y="180"/>
  <rect fill="#11AA88" height="10" width="10" x="260" y="170"/>
  <rect fill="#11AA88" height="10" width="10" x="260" y="150"/>
  <rect fill="#11AA88" height="10" width="10" x="260" y="100"/>
  <rect fill="#11AA88" height="10" width="10" x="260" y="60"/>
  <rect fill="#11AA88" height="10" width="10" x="260" y="50"/>
  <rect fill="#11AA88" height="10" width="10" x="260" y="40"/>
  <rect fill="#11AA88" height="10" width="10" x="260" y="30"/>
  <rect fill="#11AA88" height="10" width="10" x="260" y="20"/>
  <rect fill="#11AA88" height="10" width="10" x="260" y="10"/>
  <rect fill="#11AA88" height="10" width="10" x="260" y="0"/>
  <rect fill="#11AA88" height="10" width="10" x="270" y="290"/>
  <rect fill="#11AA88" height="10" width="10" x="270" y="280"/>
  <rect fill="#11AA88" height="10" width="10" x="270" y="240"/>
  <rect fill="#11AA88" height="10" width="10" x="270" y="220"/>
  <rect fill="#11AA88" height="10" width="10" x="270" y="210"/>
  <rect fill="#11AA88" height="10" width="10" x="270" y="200"/>
  <rect fill="#11AA88" height="10" width="10" x="270" y="190"/>
  <rect fill="#11AA88" height="10" width="10" x="270" y="180"/>
  <rect fill="#11AA88" height="10" width="10" x="270" y="170"/>
  <rect fill="#11AA88" height="10" width="10" x="270" y="140"/>
  <rect fill="#11AA88" height="10" width="10" x="270" y="120"/>
  <rect fill="#11AA88" height="10" width="10" x="270" y="100"/>
  <rect fill="#11AA88" height="10" width="10" x="270" y="90"/>
  <rect fill="#11AA88" height="10" width="10" x="270" y="80"/>
  <rect fill="#11AA88" height="10" width="10" x="270" y="60"/>
  <rect fill="#11AA88" height="10" width="10" x="270" y="0"/>
  <rect fill="#11AA88" height="10" width="10" x="280" y="310"/>
  <rect fill="#11AA88" height="10" width="10" x="280" y="280"/>
  <rect fill="#11AA88" height="10" width="10" x="280" y="270"/>
  <rect fill="#11AA88" height="10" width="10" x="280" y="260"/>
  <rect fill="#11AA88" height="10" width="10" x="280" y="250"/>
  <rect fill="#11AA88" height="10" width="10" x="280" y="240"/>
  <rect fill="#11AA88" height="10" width="10" x="280" y="210"/>
  <rect fill="#11AA88" height="10" width="10" x="280" y="200"/>
  <rect fill="#11AA88" height="10" width="10" x="280" y="170"/>
  <rect fill="#11AA88" height="10" width="10" x="280" y="160"/>
  <rect fill="#11AA88" height="10" width="10" x="280" y="140"/>
  <rect fill="#11AA88" height="10" width="10" x="280" y="130"/>
  <rect fill="#11AA88" height="10" width="10" x="280" y="110"/>
  <rect fill="#11AA88" height="10" width="10" x="280" y="90"/>
  <rect fill="#11AA88" height="10" width="10" x="280" y="80"/>
  <rect fill="#11AA88" height="10" width="10" x="280" y="60"/>
  <rect fill="#11AA88" height="10" width="10" x="280" y="40"/>
  <rect fill="#11AA88" height="10" width="10" x="280" y="30"/>
  <rect fill="#11AA88" height="10" width="10" x="280" y="20"/>
  <rect fill="#11AA88" height="10" width="10" x="280" y="0"/>
  <rect fill="#11AA88" height="10" width="10" x="290" y="300"/>
  <rect fill="#11AA88" height="10" width="10" x="290" y="280"/>
  <rect fill="#11AA88" height="10" width="10" x="290" y="260"/>
  <rect fill="#11AA88" height="10" width="10" x="290" y="180"/>
  <rect fill="#11AA88" height="10" width="10" x="290" y="170"/>
  <rect fill="#11AA88" height="10" width="10" x="290" y="160"/>
  <rect fill="#11AA88" height="10" width="10" x="290" y="150"/>
  <rect fill="#11AA88" height="10" width="10" x="290" y="120"/>
  <rect fill="#11AA88" height="10" width="10" x="290" y="100"/>
  <rect fill="#11AA88" height="10" width="10" x="290" y="90"/>
  <rect fill="#11AA88" height="10" width="10" x="290" y="60"/>
  <rect fill="#11AA88" height="10" width="10" x="290" y="40"/>
  <rect fill="#11AA88" height="10" width="10" x="290" y="30"/>
  <rect fill="#11AA88" height="10" width="10" x="290" y="20"/>
  <rect fill="#11AA88" height="10" width="10" x="290" y="0"/>
  <rect fill="#11AA88" height="10" width="10" x="300" y="290"/>
  <rect fill="#11AA88" height="10" width="10" x="300" y="280"/>
  <rect fill="#11AA88" height="10" width="10" x="300" y="260"/>
  <rect fill="#11AA88" height="10" width="10" x="300" y="240"/>
  <rect fill="#11AA88" height="10" width="10" x="300" y="220"/>
  <rect fill="#11AA88" height="10" width="10" x="300" y="210"/>
  <rect fill="#11AA88" height="10" width="10" x="300" y="200"/>
  <rect fill="#11AA88" height="10" width="10" x="300" y="150"/>
  <rect fill="#11AA88" height="10" width="10" x="300" y="140"/>
  <rect fill="#11AA88" height="10" width="10" x="300" y="130"/>
  <rect fill="#11AA88" height="10" width="10" x="300" y="120"/>
  <rect fill="#11AA88" height="10" width="10" x="300" y="110"/>
  <rect fill="#11AA88" height="10" width="10" x="300" y="90"/>
  <rect fill="#11AA88" height="10" width="10" x="300" y="60"/>
  <rect fill="#11AA88" height="10" width="10" x="300" y="40"/>
  <rect fill="#11AA88" height="10" width="10" x="300" y="30"/>
  <rect fill="#11AA88" height="10" width="10" x="300" y="20"/>
  <rect fill="#11AA88" height="10" width="10" x="300" y="0"/>
  <rect fill="#11AA88" height="10" width="10" x="310" y="280"/>
  <rect fill="#11AA88" height="10" width="10" x="310" y="240"/>
  <rect fill="#11AA88" height="10" width="10" x="310" y="230"/>
  <rect fill="#11AA88" height="10" width="10" x="310" y="220"/>
  <rect fill="#11AA88" height="10" width="10" x="310" y="210"/>
  <rect fill="#11AA88" height="10" width="10" x="310" y="180"/>
  <rect fill="#11AA88" height="10" width="10" x="310" y="170"/>
  <rect fill="#11AA88" height="10" width="10" x="310" y="130"/>
  <rect fill="#11AA88" height="10" width="10" x="310" y="110"/>
  <rect fill="#11AA88" height="10" width="10" x="310" y="100"/>
  <rect fill="#11AA88" height="10" width="10" x="310" y="80"/>
  <rect fill="#11AA88" height="10" width="10" x="310" y="60"/>
  <rect fill="#11AA88" height="10" width="10" x="310" y="0"/>
  <rect fill="#11AA88" height="10" width="10" x="320" y="320"/>
  <rect fill="#11AA88" height="10" width="10" x="320" y="290"/>
  <rect fill="#11AA88" height="10" width="10" x="320" y="280"/>
  <rect fill="#11AA88" height="10" width="10" x="320" y="260"/>
  <rect fill="#11AA88" height="10" width="10" x="320" y="240"/>
  <rect fill="#11AA88" height="10" width="10" x="320" y="230"/>
  <rect fill="#11AA88" height="10" width="10" x="320" y="220"/>
  <rect fill="#11AA88" height="10" width="10" x="320" y="210"/>
  <rect fill="#11AA88" height="10" width="10" x="320" y="170"/>
  <rect fill="#11AA88" height="10" width="10" x="320" y="150"/>
  <rect fill="#11AA88" height="10" width="10" x="320" y="130"/>
  <rect fill="#11AA88" height="10" width="10" x="320" y="120"/>
  <rect fill="#11AA88" height="10" width="10" x="320" y="80"/>
  <rect fill="#11AA88" height="10" width="10" x="320" y="60"/>
  <rect fill="#11AA88" height="10" width="10" x="320" y="50"/>
  <rect fill="#11AA88" height="10" width="10" x="320" y="40"/>
  <rect fill="#11AA88" height="10" width="10" x="320" y="30"/>
  <rect fill="#11AA88" height="10" width="10" x="320" y="20"/>
  <rect fill="#11AA88" height="10" width="10" x="320" y="10"/>
  <rect fill="#11AA88" height="10" width="10" x="320" y="0"/>
</svg>